<svg width="384" height="384" viewBox="0 0 384 384" xmlns="http://www.w3.org/2000/svg">
  <defs>
    <linearGradient id="vanGradient384" x1="0%" y1="0%" x2="100%" y2="100%">
      <stop offset="0%" style="stop-color:#60a5fa;stop-opacity:1" />
      <stop offset="100%" style="stop-color:#3b82f6;stop-opacity:1" />
    </linearGradient>
    <linearGradient id="shadowGradient384" x1="0%" y1="0%" x2="100%" y2="100%">
      <stop offset="0%" style="stop-color:#1e40af;stop-opacity:0.8" />
      <stop offset="100%" style="stop-color:#1e3a8a;stop-opacity:0.9" />
    </linearGradient>
  </defs>
  
  <!-- Background circle -->
  <circle cx="192" cy="192" r="180" fill="#ffffff" stroke="#e5e7eb" stroke-width="3"/>
  
  <!-- Van shadow -->
  <ellipse cx="194" cy="285" rx="90" ry="15" fill="url(#shadowGradient384)" opacity="0.3"/>
  
  <!-- Van body -->
  <rect x="102" y="150" width="180" height="90" rx="9" fill="url(#vanGradient384)" stroke="#1e40af" stroke-width="2"/>
  
  <!-- Van windshield -->
  <rect x="240" y="158" width="37" height="45" rx="6" fill="#dbeafe" stroke="#3b82f6" stroke-width="2"/>
  
  <!-- Van side windows -->
  <rect x="112" y="158" width="30" height="30" rx="3" fill="#dbeafe" stroke="#3b82f6" stroke-width="1"/>
  <rect x="150" y="158" width="30" height="30" rx="3" fill="#dbeafe" stroke="#3b82f6" stroke-width="1"/>
  <rect x="188" y="158" width="30" height="30" rx="3" fill="#dbeafe" stroke="#3b82f6" stroke-width="1"/>
  
  <!-- Van front bumper -->
  <rect x="277" y="180" width="11" height="30" rx="3" fill="#1e40af"/>
  
  <!-- Van wheels -->
  <circle cx="127" cy="255" r="19" fill="#374151" stroke="#1f2937" stroke-width="2"/>
  <circle cx="127" cy="255" r="11" fill="#6b7280"/>
  <circle cx="127" cy="255" r="6" fill="#9ca3af"/>
  
  <circle cx="240" cy="255" r="19" fill="#374151" stroke="#1f2937" stroke-width="2"/>
  <circle cx="240" cy="255" r="11" fill="#6b7280"/>
  <circle cx="240" cy="255" r="6" fill="#9ca3af"/>
  
  <!-- Van headlight -->
  <circle cx="281" cy="165" r="6" fill="#fbbf24" stroke="#f59e0b" stroke-width="1"/>
  
  <!-- Van door handle -->
  <rect x="210" y="195" width="6" height="2" rx="1" fill="#1e40af"/>
  
  <!-- Management symbol (clipboard/checklist) -->
  <rect x="142" y="97" width="30" height="37" rx="3" fill="#ffffff" stroke="#3b82f6" stroke-width="2"/>
  <rect x="146" y="105" width="22" height="2" rx="1" fill="#3b82f6"/>
  <rect x="146" y="112" width="19" height="2" rx="1" fill="#3b82f6"/>
  <rect x="146" y="119" width="15" height="2" rx="1" fill="#3b82f6"/>
  <circle cx="150" cy="109" r="1.5" fill="#10b981"/>
  <circle cx="150" cy="116" r="1.5" fill="#10b981"/>
  
  <!-- Management symbol (wrench) -->
  <g transform="translate(210, 105)">
    <rect x="0" y="7" width="2" height="15" rx="1" fill="#6b7280"/>
    <rect x="0" y="6" width="5" height="5" rx="2" fill="#6b7280"/>
    <rect x="0" y="21" width="5" height="5" rx="2" fill="#6b7280"/>
  </g>
</svg>