<svg width="96" height="96" viewBox="0 0 96 96" xmlns="http://www.w3.org/2000/svg">
  <defs>
    <linearGradient id="vanGradient96" x1="0%" y1="0%" x2="100%" y2="100%">
      <stop offset="0%" style="stop-color:#60a5fa;stop-opacity:1" />
      <stop offset="100%" style="stop-color:#3b82f6;stop-opacity:1" />
    </linearGradient>
  </defs>
  
  <!-- Background circle -->
  <circle cx="48" cy="48" r="44" fill="#ffffff" stroke="#e5e7eb" stroke-width="1"/>
  
  <!-- Van body -->
  <rect x="25" y="37" width="45" height="22" rx="2" fill="url(#vanGradient96)" stroke="#1e40af" stroke-width="1"/>
  
  <!-- Van windshield -->
  <rect x="60" y="40" width="9" height="11" rx="1" fill="#dbeafe" stroke="#3b82f6" stroke-width="0.5"/>
  
  <!-- Van side windows -->
  <rect x="28" y="40" width="7" height="7" rx="1" fill="#dbeafe"/>
  <rect x="37" y="40" width="7" height="7" rx="1" fill="#dbeafe"/>
  <rect x="46" y="40" width="7" height="7" rx="1" fill="#dbeafe"/>
  
  <!-- Van wheels -->
  <circle cx="32" cy="63" r="5" fill="#374151"/>
  <circle cx="32" cy="63" r="3" fill="#9ca3af"/>
  
  <circle cx="60" cy="63" r="5" fill="#374151"/>
  <circle cx="60" cy="63" r="3" fill="#9ca3af"/>
  
  <!-- Van headlight -->
  <circle cx="70" cy="42" r="2" fill="#fbbf24"/>
  
  <!-- Management symbol -->
  <rect x="36" y="24" width="8" height="10" rx="1" fill="#ffffff" stroke="#3b82f6" stroke-width="0.5"/>
  <rect x="37" y="26" width="6" height="0.5" fill="#3b82f6"/>
  <rect x="37" y="28" width="5" height="0.5" fill="#3b82f6"/>
  <rect x="37" y="30" width="4" height="0.5" fill="#3b82f6"/>
  <circle cx="38" cy="26.5" r="0.5" fill="#10b981"/>
  <circle cx="38" cy="28.5" r="0.5" fill="#10b981"/>
</svg>