<svg width="192" height="192" viewBox="0 0 192 192" xmlns="http://www.w3.org/2000/svg">
  <defs>
    <linearGradient id="vanGradient192" x1="0%" y1="0%" x2="100%" y2="100%">
      <stop offset="0%" style="stop-color:#60a5fa;stop-opacity:1" />
      <stop offset="100%" style="stop-color:#3b82f6;stop-opacity:1" />
    </linearGradient>
    <linearGradient id="shadowGradient192" x1="0%" y1="0%" x2="100%" y2="100%">
      <stop offset="0%" style="stop-color:#1e40af;stop-opacity:0.8" />
      <stop offset="100%" style="stop-color:#1e3a8a;stop-opacity:0.9" />
    </linearGradient>
  </defs>
  
  <!-- Background circle -->
  <circle cx="96" cy="96" r="90" fill="#ffffff" stroke="#e5e7eb" stroke-width="2"/>
  
  <!-- Van shadow -->
  <ellipse cx="97" cy="142" rx="45" ry="8" fill="url(#shadowGradient192)" opacity="0.3"/>
  
  <!-- Van body -->
  <rect x="51" y="75" width="90" height="45" rx="5" fill="url(#vanGradient192)" stroke="#1e40af" stroke-width="2"/>
  
  <!-- Van windshield -->
  <rect x="120" y="79" width="19" height="22" rx="3" fill="#dbeafe" stroke="#3b82f6" stroke-width="1"/>
  
  <!-- Van side windows -->
  <rect x="56" y="79" width="15" height="15" rx="2" fill="#dbeafe" stroke="#3b82f6" stroke-width="1"/>
  <rect x="75" y="79" width="15" height="15" rx="2" fill="#dbeafe" stroke="#3b82f6" stroke-width="1"/>
  <rect x="94" y="79" width="15" height="15" rx="2" fill="#dbeafe" stroke="#3b82f6" stroke-width="1"/>
  
  <!-- Van front bumper -->
  <rect x="139" y="90" width="6" height="15" rx="2" fill="#1e40af"/>
  
  <!-- Van wheels -->
  <circle cx="64" cy="127" r="9" fill="#374151" stroke="#1f2937" stroke-width="1"/>
  <circle cx="64" cy="127" r="6" fill="#6b7280"/>
  <circle cx="64" cy="127" r="3" fill="#9ca3af"/>
  
  <circle cx="120" cy="127" r="9" fill="#374151" stroke="#1f2937" stroke-width="1"/>
  <circle cx="120" cy="127" r="6" fill="#6b7280"/>
  <circle cx="120" cy="127" r="3" fill="#9ca3af"/>
  
  <!-- Van headlight -->
  <circle cx="141" cy="82" r="3" fill="#fbbf24" stroke="#f59e0b" stroke-width="1"/>
  
  <!-- Van door handle -->
  <rect x="105" y="97" width="3" height="1" rx="0.5" fill="#1e40af"/>
  
  <!-- Management symbol (clipboard/checklist) -->
  <rect x="71" y="48" width="15" height="19" rx="2" fill="#ffffff" stroke="#3b82f6" stroke-width="1"/>
  <rect x="73" y="52" width="11" height="1" rx="0.5" fill="#3b82f6"/>
  <rect x="73" y="56" width="9" height="1" rx="0.5" fill="#3b82f6"/>
  <rect x="73" y="60" width="7" height="1" rx="0.5" fill="#3b82f6"/>
  <circle cx="74" cy="52.5" r="1" fill="#10b981"/>
  <circle cx="74" cy="56.5" r="1" fill="#10b981"/>
  
  <!-- Management symbol (wrench) -->
  <g transform="translate(105, 52)">
    <rect x="0" y="4" width="1" height="8" rx="0.5" fill="#6b7280"/>
    <rect x="0" y="3" width="3" height="3" rx="1" fill="#6b7280"/>
    <rect x="0" y="11" width="3" height="3" rx="1" fill="#6b7280"/>
  </g>
</svg>