<svg width="72" height="72" viewBox="0 0 72 72" xmlns="http://www.w3.org/2000/svg">
  <defs>
    <linearGradient id="vanGradient72" x1="0%" y1="0%" x2="100%" y2="100%">
      <stop offset="0%" style="stop-color:#60a5fa;stop-opacity:1" />
      <stop offset="100%" style="stop-color:#3b82f6;stop-opacity:1" />
    </linearGradient>
  </defs>
  
  <!-- Background circle -->
  <circle cx="36" cy="36" r="34" fill="#ffffff" stroke="#e5e7eb" stroke-width="1"/>
  
  <!-- Van body -->
  <rect x="19" y="28" width="34" height="17" rx="2" fill="url(#vanGradient72)" stroke="#1e40af" stroke-width="1"/>
  
  <!-- Van windshield -->
  <rect x="45" y="30" width="7" height="8" rx="1" fill="#dbeafe" stroke="#3b82f6" stroke-width="0.5"/>
  
  <!-- Van side windows -->
  <rect x="22" y="30" width="6" height="6" rx="1" fill="#dbeafe"/>
  <rect x="29" y="30" width="6" height="6" rx="1" fill="#dbeafe"/>
  <rect x="36" y="30" width="6" height="6" rx="1" fill="#dbeafe"/>
  
  <!-- Van wheels -->
  <circle cx="24" cy="48" r="4" fill="#374151"/>
  <circle cx="24" cy="48" r="2" fill="#9ca3af"/>
  
  <circle cx="45" cy="48" r="4" fill="#374151"/>
  <circle cx="45" cy="48" r="2" fill="#9ca3af"/>
  
  <!-- Van headlight -->
  <circle cx="53" cy="32" r="1.5" fill="#fbbf24"/>
  
  <!-- Management symbol (simplified) -->
  <rect x="27" y="18" width="6" height="7" rx="1" fill="#ffffff" stroke="#3b82f6" stroke-width="0.5"/>
  <rect x="28" y="20" width="4" height="0.5" fill="#3b82f6"/>
  <rect x="28" y="22" width="3" height="0.5" fill="#3b82f6"/>
  <circle cx="29" cy="20.5" r="0.5" fill="#10b981"/>
</svg>