<svg width="512" height="512" viewBox="0 0 512 512" xmlns="http://www.w3.org/2000/svg">
  <defs>
    <linearGradient id="vanGradient" x1="0%" y1="0%" x2="100%" y2="100%">
      <stop offset="0%" style="stop-color:#60a5fa;stop-opacity:1" />
      <stop offset="100%" style="stop-color:#3b82f6;stop-opacity:1" />
    </linearGradient>
    <linearGradient id="shadowGradient" x1="0%" y1="0%" x2="100%" y2="100%">
      <stop offset="0%" style="stop-color:#1e40af;stop-opacity:0.8" />
      <stop offset="100%" style="stop-color:#1e3a8a;stop-opacity:0.9" />
    </linearGradient>
  </defs>
  
  <!-- Background circle -->
  <circle cx="256" cy="256" r="240" fill="#ffffff" stroke="#e5e7eb" stroke-width="4"/>
  
  <!-- Van shadow -->
  <ellipse cx="258" cy="380" rx="120" ry="20" fill="url(#shadowGradient)" opacity="0.3"/>
  
  <!-- Van body -->
  <rect x="136" y="200" width="240" height="120" rx="12" ry="12" fill="url(#vanGradient)" stroke="#1e40af" stroke-width="2"/>
  
  <!-- Van windshield -->
  <rect x="320" y="210" width="50" height="60" rx="8" ry="8" fill="#dbeafe" stroke="#3b82f6" stroke-width="2"/>
  
  <!-- Van side windows -->
  <rect x="150" y="210" width="40" height="40" rx="4" ry="4" fill="#dbeafe" stroke="#3b82f6" stroke-width="1"/>
  <rect x="200" y="210" width="40" height="40" rx="4" ry="4" fill="#dbeafe" stroke="#3b82f6" stroke-width="1"/>
  <rect x="250" y="210" width="40" height="40" rx="4" ry="4" fill="#dbeafe" stroke="#3b82f6" stroke-width="1"/>
  
  <!-- Van front bumper -->
  <rect x="370" y="240" width="15" height="40" rx="4" ry="4" fill="#1e40af"/>
  
  <!-- Van wheels -->
  <circle cx="170" cy="340" r="25" fill="#374151" stroke="#1f2937" stroke-width="2"/>
  <circle cx="170" cy="340" r="15" fill="#6b7280"/>
  <circle cx="170" cy="340" r="8" fill="#9ca3af"/>
  
  <circle cx="320" cy="340" r="25" fill="#374151" stroke="#1f2937" stroke-width="2"/>
  <circle cx="320" cy="340" r="15" fill="#6b7280"/>
  <circle cx="320" cy="340" r="8" fill="#9ca3af"/>
  
  <!-- Van headlight -->
  <circle cx="375" cy="220" r="8" fill="#fbbf24" stroke="#f59e0b" stroke-width="1"/>
  
  <!-- Van door handle -->
  <rect x="280" y="260" width="8" height="3" rx="1" fill="#1e40af"/>
  
  <!-- Management symbol (clipboard/checklist) -->
  <rect x="190" y="130" width="40" height="50" rx="4" ry="4" fill="#ffffff" stroke="#3b82f6" stroke-width="2"/>
  <rect x="195" y="140" width="30" height="2" rx="1" fill="#3b82f6"/>
  <rect x="195" y="150" width="25" height="2" rx="1" fill="#3b82f6"/>
  <rect x="195" y="160" width="20" height="2" rx="1" fill="#3b82f6"/>
  <circle cx="200" cy="145" r="2" fill="#10b981"/>
  <circle cx="200" cy="155" r="2" fill="#10b981"/>
  
  <!-- Management symbol (wrench) -->
  <g transform="translate(280, 140)">
    <rect x="0" y="10" width="3" height="20" rx="1" fill="#6b7280"/>
    <rect x="0" y="8" width="7" height="6" rx="2" fill="#6b7280"/>
    <rect x="0" y="28" width="7" height="6" rx="2" fill="#6b7280"/>
  </g>
</svg>